#!OML:ASF E:\emotionWalksFemale\Project 1\Capture day 1\Session 1\Female1.ASF
:FULLY-SPECIFIED
:DEGREES
1
root 8.14977 15.1321 42.2394 -179.398 2.73647 -179.074
lowerback 6.40349 1.51803 0.409969
upperback -3.59681 2.11618 -0.0923304
thorax -7.34491 1.03612 -0.597095
lowerneck -3.41756 -2.09686 -5.01985
upperneck 7.88057 -3.08571 5.2736
head 3.358 -1.56225 2.51487
rclavicle 2.39287e-014 4.87022e-015
rhumerus -43.1831 13.136 -96.6399
rradius 34.0543
rwrist 15.4863
rhand -0.264722 -55.6484
rfingers 7.12502
rthumb 25.3368 -83.9853
lclavicle 2.39287e-014 4.87022e-015
lhumerus -42.8797 -0.00597708 84.8947
lradius 35.0523
lwrist -14.9929
lhand -5.43493 -34.461
lfingers 7.12502
lthumb 20.3755 -5.50996
rfemur -7.45595 16.8667 25.5296
rtibia 28.2904
rfoot -27.243 -27.1653
rtoes 18.4015
lfemur -8.88807 -20.6175 -26.5613
ltibia 29.5054
lfoot -27.6013 24.7089
ltoes -0.258531
2
root 8.14152 15.1339 42.2275 -179.35 2.16484 -178.815
lowerback 6.2771 1.3516 0.712504
upperback -3.5701 1.92462 -0.040838
thorax -7.23707 0.929797 -0.684368
lowerneck -3.39488 -2.09934 -5.00556
upperneck 7.71788 -3.08684 5.36115
head 3.29969 -1.55752 2.54101
rclavicle -1.8487e-014 5.96354e-016
rhumerus -43.0248 12.5638 -96.4129
rradius 34.1067
rwrist 15.7661
rhand -0.345054 -55.391
rfingers 7.12502
rthumb 25.2598 -83.7389
lclavicle -1.8487e-014 5.96354e-016
lhumerus -43.0687 0.0746252 84.7885
lradius 34.9868
lwrist -15.4064
lhand -5.8041 -34.899
lfingers 7.12502
lthumb 20.0207 -5.91044
rfemur -7.17959 16.7472 25.8569
rtibia 27.9264
rfoot -27.2432 -27.6873
rtoes 18.0721
lfemur -9.05312 -20.6287 -26.2496
ltibia 29.7542
lfoot -27.4675 24.3624
ltoes -5.85513
3
root 8.13073 15.136 42.22 -179.1 2.39642 -178.633
lowerback 6.0656 1.42434 0.992499
upperback -3.65085 2.05323 -0.029393
thorax -7.18984 0.982452 -0.84035
lowerneck -3.31172 -2.03058 -5.25362
upperneck 7.58709 -3.00246 5.67797
head 3.24926 -1.51338 2.69922
rclavicle -2.10588e-014 -2.5842e-015
rhumerus -42.9465 12.0599 -96.2733
rradius 34.1521
rwrist 16.0516
rhand -0.90838 -54.3046
rfingers 7.12502
rthumb 24.72 -82.7275
lclavicle -2.10588e-014 -2.5842e-015
lhumerus -43.4573 -0.146561 84.8309
lradius 35.1024
lwrist -15.5822
lhand -6.39466 -35.1204
lfingers 7.12502
lthumb 19.4529 -6.07349
rfemur -7.46261 16.8447 25.9051
rtibia 27.8873
rfoot -26.9585 -27.7219
rtoes 17.3942
lfemur -9.2843 -20.7248 -26.0456
ltibia 29.7792
lfoot -27.7249 24.4375
ltoes -10.203
4
root 8.11898 15.1312 42.209 -179.156 2.28874 -178.701
lowerback 6.10427 1.38751 0.996347
upperback -3.64613 2.00259 -0.0509338
thorax -7.20726 0.956348 -0.859999
lowerneck -3.17671 -2.01337 -5.35417
upperneck 7.44178 -2.97616 5.74856
head 3.17651 -1.5017 2.74249
rclavicle 3.76448e-015 2.98177e-016
rhumerus -42.9889 11.8482 -96.2104
rradius 34.28
rwrist 16.1251
rhand -1.17658 -53.663
rfingers 7.12502
rthumb 24.4629 -82.1209
lclavicle 3.76448e-015 2.98177e-016
lhumerus -43.7722 -0.356225 84.9574
lradius 35.1412
lwrist -15.7006
lhand -6.61946 -34.7781
lfingers 7.12502
lthumb 19.2368 -5.70947
rfemur -7.33946 16.9699 25.83
rtibia 27.8516
rfoot -26.9736 -27.9806
rtoes 17.3368
lfemur -9.17737 -20.9529 -26.2364
ltibia 29.8042
lfoot -27.7312 24.554
ltoes -19.7707
5
root 8.1074 15.1334 42.202 -178.945 2.84904 -178.818
lowerback 5.98492 1.61651 0.748247
upperback -3.736 2.29148 -0.0496364
thorax -7.23793 1.11222 -0.752848
lowerneck -3.14124 -2.06386 -5.17213
upperneck 7.41903 -3.03066 5.47637
head 3.15281 -1.53127 2.61219
rclavicle -2.77802e-014 -3.08116e-015
rhumerus -43.1365 11.6204 -96.0812
rradius 34.5744
rwrist 16.2084
rhand -0.684663 -54.0544
rfingers 7.12502
rthumb 24.9344 -82.4478
lclavicle -2.77802e-014 -3.08116e-015
lhumerus -43.9579 -0.465215 85.0848
lradius 35.084
lwrist -15.7774
lhand -6.63058 -34.4521
lfingers 7.12502
lthumb 19.2261 -5.38245
rfemur -7.64743 17.1113 25.5106
rtibia 27.8573
rfoot -26.6484 -27.7007
rtoes 16.6664
lfemur -9.35619 -20.8633 -26.4078
ltibia 29.8262
lfoot -27.9093 24.9978
ltoes -19.9889
6
root 8.098 15.1306 42.1882 -179.032 2.65917 -178.833
lowerback 6.08137 1.60903 0.633587
upperback -3.7445 2.27423 -0.00868544
thorax -7.30928 1.1097 -0.647256
lowerneck -3.19554 -2.09712 -5.06801
upperneck 7.49851 -3.06724 5.29235
head 3.18463 -1.55147 2.5286
rclavicle -6.08778e-015 -1.98785e-015
rhumerus -43.2984 11.2702 -95.8563
rradius 34.8454
rwrist 16.3739
rhand -0.361242 -54.1489
rfingers 7.12502
rthumb 25.2443 -82.4989
lclavicle -6.08778e-015 -1.98785e-015
lhumerus -44.1653 -0.472562 85.1764
lradius 34.9961
lwrist -15.908
lhand -7.01688 -34.5152
lfingers 7.12502
lthumb 18.8546 -5.40897
rfemur -7.49132 17.1479 25.5381
rtibia 27.956
rfoot -26.8556 -27.8546
rtoes 17.0445
lfemur -9.19114 -20.8125 -26.4997
ltibia 29.7798
lfoot -27.9018 24.8751
ltoes -20.1251
7
root 8.08271 15.1265 42.1772 -179.084 2.27983 -178.609
lowerback 6.2398 1.50243 0.922248
upperback -3.78359 2.16618 0.0595932
thorax -7.43669 1.04322 -0.730149
lowerneck -3.17477 -2.10487 -5.09085
upperneck 7.4536 -3.07478 5.30346
head 3.16666 -1.5551 2.53608
rclavicle -3.31473e-014 -4.57205e-015
rhumerus -43.4035 11.0199 -95.6842
rradius 34.9814
rwrist 16.5109
rhand -0.268956 -54.07
rfingers 7.12502
rthumb 25.3327 -82.4076
lclavicle -3.31473e-014 -4.57205e-015
lhumerus -44.4948 -0.498263 85.2797
lradius 35.029
lwrist -16.0126
lhand -7.23857 -34.4324
lfingers 7.12502
lthumb 18.6414 -5.30563
rfemur -7.38944 16.9683 25.8
rtibia 28.0593
rfoot -26.9005 -28.1269
rtoes 16.9938
lfemur -9.11463 -20.8042 -26.3108
ltibia 29.7467
lfoot -27.7635 24.5312
ltoes -20.0724
8
root 8.06773 15.1224 42.1639 -179.251 1.93525 -178.861
lowerback 6.41437 1.41472 0.639848
upperback -3.74768 2.02033 0.0712849
thorax -7.51189 0.984132 -0.545993
lowerneck -3.17804 -2.10829 -5.11571
upperneck 7.36384 -3.05631 5.16619
head 3.13221 -1.54794 2.4938
rclavicle -8.2682e-015 -3.67752e-015
rhumerus -43.4709 10.9304 -95.4721
rradius 35.0991
rwrist 16.5761
rhand -0.118465 -54.2187
rfingers 7.12502
rthumb 25.4769 -82.5357
lclavicle -8.2682e-015 -3.67752e-015
lhumerus -44.7962 -0.628846 85.5681
lradius 35.1346
lwrist -15.7555
lhand -6.64967 -33.9181
lfingers 7.12502
lthumb 19.2077 -4.84664
rfemur -7.16728 16.6013 25.5497
rtibia 28.1642
rfoot -26.9693 -28.2682
rtoes 16.1932
lfemur -8.87856 -20.8627 -26.7092
ltibia 29.7197
lfoot -27.7319 24.1612
ltoes -19.7608
9
root 8.05366 15.1212 42.1546 -179.293 1.82723 -178.917
lowerback 6.36175 1.35131 0.738355
upperback -3.6291 1.93511 0.0281987
thorax -7.35066 0.935517 -0.631538
lowerneck -3.24729 -2.073 -5.20913
upperneck 7.12872 -2.9825 5.21045
head 3.0643 -1.50612 2.52744
rclavicle 3.68373e-015 4.17448e-015
rhumerus -43.2769 10.8265 -95.3577
rradius 35.141
rwrist 16.6328
rhand -0.421941 -53.5968
rfingers 7.12502
rthumb 25.1862 -81.955
lclavicle 3.68373e-015 4.17448e-015
lhumerus -44.7547 -0.521739 85.5734
lradius 35.2277
lwrist -15.0573
lhand -4.79245 -33.0057
lfingers 7.12502
lthumb 20.9928 -4.12179
rfemur -7.13533 16.2462 25.4222
rtibia 28.2724
rfoot -27.0832 -28.0349
rtoes 15.9019
lfemur -8.79292 -20.9245 -26.857
ltibia 29.7218
lfoot -27.7848 24.0788
ltoes -18.9975
